<svg width="411" height="85" viewBox="0 0 411 85" fill="none" xmlns="http://www.w3.org/2000/svg">
<path d="M395.559 3.84197H398.135V10.5779H399.184V3.84197H401.76V2.93359H395.559V3.84197Z" fill="#E7CC3C"/>
<path d="M408.552 2.93359L406.367 9.39936L404.168 2.93359H402.682V10.5779H403.67V6.06399C403.67 5.88232 403.665 5.60282 403.656 5.21618C403.647 4.83419 403.642 4.54538 403.642 4.35904V4.12613L405.85 10.5779H406.875L409.06 4.13079C409.06 4.54538 409.055 4.93202 409.05 5.29071C409.041 5.65406 409.041 5.91027 409.041 6.06865V10.5826H410.029V2.93359H408.552Z" fill="#E7CC3C"/>
<path d="M113.858 18.8966V84.209H93.0212V18.8966H72.1844V0.574585H134.623V18.8966H113.858Z" fill="#E7CC3C"/>
<path d="M188.57 84.1371L173.625 53.0257H166.583V84.1371H145.747V0.574585H179.301C198.054 0.574585 208.185 13.7233 208.185 27.4468C208.185 38.8711 201.072 45.9843 194.39 49.2895L212.712 84.1371H188.57ZM178.295 18.9684H166.512V35.8534H178.295C183.971 35.8534 187.348 31.7578 187.348 27.3749C187.348 22.992 184.043 18.9684 178.295 18.9684Z" fill="#E7CC3C"/>
<path d="M222.255 84.1371V0.574585H243.092V84.209H222.255V84.1371Z" fill="#E7CC3C"/>
<path d="M294.968 84.1373H279.52L251.57 0.50293H273.054L287.352 47.206L301.363 0.50293H322.99L294.968 84.1373Z" fill="#E7CC3C"/>
<path d="M331.612 84.1371V0.574585H389.165V18.8966H352.449V32.8356H383.848V51.1576H352.449V65.8151H389.165V84.1371H331.612Z" fill="#E7CC3C"/>
<path d="M20.5493 0C9.19691 0 0 9.0532 0 20.3338C0 31.5425 9.19691 40.6676 20.5493 40.6676H21.0523L22.8486 40.3802L37.7217 14.0828L34.5603 38.6558H51.5171L65.0969 0H20.5493Z" fill="#E7CC3C"/>
<path d="M44.5475 43.1827H44.0446L40.955 43.6857L27.6626 65.8158L30.1774 45.1946H13.5798L0 83.8503H44.5475C55.9 83.8503 65.0969 74.7971 65.0969 63.5165C65.0969 52.3078 55.9 43.1827 44.5475 43.1827Z" fill="#E7CC3C"/>
</svg>
